{"title":"One Child S01E03 x264 RB58.mp4","uid":13727100,"size":666016296,"categoryP":"video","categoryS":"tv_shows","magnet":"?xt=urn:btih:3d0ce8924ed544b5b5a55a14778f5bf372e6c6ce&amp;dn=One+Child+S01E03+x264+RB58.mp4&amp;tr=udp%3A%2F%2Ftracker.leechers-paradise.org%3A6969&amp;tr=udp%3A%2F%2Fzer0day.ch%3A1337&amp;tr=udp%3A%2F%2Fopen.demonii.com%3A1337&amp;tr=udp%3A%2F%2Ftracker.coppersurfer.tk%3A6969&amp;tr=udp%3A%2F%2Fexodus.desync.com%3A6969","seeders":0,"leechers":1,"uploader":"RedBaron58","files":1,"time":1456972094,"description":"One Child S01E03 x264 mp4\r\n \nhttp://www.imdb.com/title/tt3864896/\r\n\r\nTrialer\r\n\r\n\r\nPlease be patient My intial upload speed is limited.\r\nThank you for your kind comments and feedback on my other torrents, your feedback is welcome.\r\n\r\n\r\nAbout the Episode:\r\nWhen the judge accuses Ajun and his legal team of corrupting witnesses, Mei is left wondering \r\nif she has been used by Qianyi and her friends. Feeling abandoned and useless, \r\nshe soon realises the real killer might be able to help her, so she tries to persuade him to \r\nadmit his guilt. However, when he arranges for Mei to meet his father, a high-ranking security \r\nofficial, she is offered a choice that will secure Ajun's freedom, but at a cost she cannot \r\nbring herself to take. Drama, starring Katie Leung.\r\n\r\n\r\nI hope you enjoy.\r\n\r\n\r\nTechnical:\r\n\r\n\r\nGeneral\r\nComplete name                            : G:One Child S01E03 x264 RB58.mp4\r\nFormat                                   : MPEG-4\r\nFormat profile                           : Base Media\r\nCodec ID                                 : isom\r\nFile size                                : 635 MiB\r\nDuration                                 : 58mn 24s\r\nOverall bit rate                         : 1 520 Kbps\r\nWriting application                      : Lavf54.63.104\r\n\r\nVideo\r\nID                                       : 1\r\nFormat                                   : AVC\r\nFormat/Info                              : Advanced Video Codec\r\nFormat profile                           :   \r\nFormat settings, CABAC                   : Yes\r\nFormat settings, ReFrames                : 4 frames\r\nCodec ID                                 : avc1\r\nCodec ID/Info                            : Advanced Video Coding\r\nDuration                                 : 58mn 24s\r\nBit rate                                 : 1 400 Kbps\r\nWidth                                    : 832 pixels\r\nHeight                                   : 468 pixels\r\nDisplay aspect ratio                     : 16:9\r\nFrame rate mode                          : Constant\r\nFrame rate                               : 25.000 fps\r\nColor space                              : YUV\r\nChroma subsampling                       : 4:2:0\r\nBit depth                                : 8 bits\r\nScan type                                : Progressive\r\nBits/(Pixel*Frame)                       : 0.144\r\nStream size                              : 585 MiB (92%)\r\nWriting library                          : x264 core 123 r2189 35cf912\r\nEncoding settings                        : cabac=1 / ref=3 / deblock=1:0:0\r\n\r\nAudio\r\nID                                       : 2\r\nFormat                                   : AAC\r\nFormat/Info                              : Advanced Audio Codec\r\nFormat profile                           : LC\r\nCodec ID                                 : 40\r\nDuration                                 : 58mn 24s\r\nBit rate mode                            : Constant\r\nBit rate                                 : 112 Kbps\r\nChannel(s)                               : 2 channels\r\nChannel positions                        : Front: L R\r\nSampling rate                            : 48.0 KHz\r\nCompression mode                         : Lossy\r\nStream size                              : 46.8 MiB (7%)","torrent":{"xt":"urn:btih:3d0ce8924ed544b5b5a55a14778f5bf372e6c6ce","amp;dn":"One+Child+S01E03+x264+RB58.mp4","amp;tr":["udp%3A%2F%2Ftracker.leechers-paradise.org%3A6969","udp%3A%2F%2Fzer0day.ch%3A1337","udp%3A%2F%2Fopen.demonii.com%3A1337","udp%3A%2F%2Ftracker.coppersurfer.tk%3A6969","udp%3A%2F%2Fexodus.desync.com%3A6969"],"infoHash":"3d0ce8924ed544b5b5a55a14778f5bf372e6c6ce","infoHashBuffer":{"type":"Buffer","data":[61,12,232,146,78,213,68,181,181,165,90,20,119,143,91,243,114,230,198,206]},"announce":[],"urlList":[]}}